<svg version="1" xmlns="http://www.w3.org/2000/svg" width="346.667" height="346.667" viewBox="0 0 260.000000 260.000000"><path d="M83.6 28c-3.8 1.6-7.2 3.4-7.5 3.8-.3.5-2.6 2-5.1 3.2-10.8 5.4-26.7 19.5-34.2 30.2-2.3 3.2-4.4 5.8-4.8 5.8-1 0-8.6 15.7-10.9 22.5-4.9 14.9-6.7 33-4.8 49l.8 7-7 5.8c-3.9 3.2-7.1 6.3-7.1 7 0 .6.6.4 1.2-.5 1.2-1.5 26.2-16.8 27.4-16.8.3 0 6.3-3.2 13.3-7.2C67.4 125 123.9 98 128 98c.6 0 1-.4 1-.9 0-1.3 19.7-8.7 37.4-14.1 24.7-7.4 30.9-8.5 48.1-8.5 14.2 0 15.3.1 20 2.5 3 1.6 6 4.1 7.4 6.3l2.5 3.8 3.4-5.3c1.9-2.9 4.9-8.5 6.7-12.3 9.2-19.6 5.4-29.8-12-32-7.3-1-26.5 2.6-42.9 8l-14 4.5-5.5-3.9c-7.2-5-13.8-8.1-23.1-11.2-4.1-1.3-7.7-2.7-8-3.1-.3-.4-4.8-1.2-9.9-1.9-7.4-.9-11.4-.9-19.2.1-5.5.7-9.9 1.5-9.9 1.9 0 .3-3.5 1.7-7.7 3-14.4 4.4-25.4 11.2-35.9 22.2-16.2 17.1-23.6 36.1-23.8 61.1l-.1 12.7-4.1 3c-4.5 3.4-5.4 3.2-5.4-1.1 0-1.5-.4-2.8-1-2.8s-1-4.8-1-12.5c0-6.9.4-12.5.9-12.5s1.2-2.3 1.5-5.2c1.2-9 6.4-23 11.8-32.2 6.5-10.9 18.4-23.8 28.1-30.3 3.9-2.6 7.4-5.2 7.6-5.7.2-.4 3.1-2.1 6.5-3.7 8.1-3.7 5-3.7-3.8.1zm59 25.5c7.3 1.7 17.4 5.4 17.4 6.3 0 .4-6.6 4-14.7 8.1-16.4 8.1-50.2 26.8-51.8 28.6-.5.6-2.8 2.2-5 3.5-2.2 1.3-8.4 5.3-13.8 8.8-5.4 3.6-10.1 6.1-10.4 5.8-1.4-1.3 3-19.2 6.3-26.1 6.3-13.4 17.9-24.7 31-30.3 13.6-5.9 28.8-7.6 41-4.7z"/><path d="M184.3 89.1c-8.1 1.2-29.5 6.6-30.2 7.7-.3.4-4.4 2.1-9.1 3.6-9.9 3.3-13.2 5-8.1 4.2 17.4-3 45.8-3.3 52.9-.6 4.2 1.6 5.2 4.2 5.2 13.3-.1 14.7-4.2 26.8-13.9 40.4-8.5 12-19.5 19.1-36 23.4-19 4.9-43-.5-58.1-13.1-7.5-6.3-20-25.7-20-31.2 0-3.2-1.9-2.9-11.1 1.7-10.8 5.5-10.7 4.8-3.4 19.7 23.8 48.5 90.8 61.8 133.3 26.5 16.2-13.5 27.5-35 30.4-58.3 1-7.9.9-11-.5-20.9-2.3-15.3-2.7-16.1-7.4-16.8-5.1-.9-16.3-.7-24 .4z"/><path d="M228.1 118.2c-.1 6.5-.5 11.8-1 11.8s-1.1 2.2-1.5 5c-1.8 13.5-10.7 33.1-20.2 44.6-14.1 16.9-30 27.1-50.9 32.5-7.7 2.1-11.3 2.4-25.5 2.4s-17.7-.4-25-2.4c-18.4-5.1-32.2-13.3-45.3-27-9.1-9.5-13.5-16.1-18.3-27.4-1.9-4.5-3.7-8.3-3.8-8.5-.2-.1-4 1.6-8.6 4l-8.1 4.2.6 3.6c.8 4.1 9 22 10.8 23.5.7.5 2.6 3 4.2 5.5 7.9 11.7 25.1 26.7 38 33.2 3.3 1.7 6.2 3.4 6.5 3.9 1 1.4 15.4 5.7 24.9 7.3 11.9 2 24.3 2 35.7.1 8.6-1.5 24.4-6.1 25.4-7.5.3-.3 4-2.5 8.3-4.8 23.9-12.8 43.5-36.7 50.3-61.2.9-3.6 2.1-6.7 2.5-7 2.9-2.1 4.6-34.4 2.2-43.5-1-3.5-1.1-2.5-1.2 7.7z"/></svg>